<svg width="16" height="9" viewBox="0 0 16 9" fill="none" xmlns="http://www.w3.org/2000/svg">
<path d="M10.2908 2.20921L12.5908 4.49921L10.2908 6.78921C10.1971 6.88217 10.1227 6.99277 10.0719 7.11463C10.0211 7.23649 9.99499 7.3672 9.99499 7.49921C9.99499 7.63122 10.0211 7.76193 10.0719 7.88379C10.1227 8.00564 10.1971 8.11625 10.2908 8.20921C10.3838 8.30294 10.4944 8.37733 10.6162 8.4281C10.7381 8.47887 10.8688 8.50501 11.0008 8.50501C11.1328 8.50501 11.2635 8.47887 11.3854 8.4281C11.5072 8.37733 11.6178 8.30294 11.7108 8.20921L14.7108 5.20921C14.8045 5.11625 14.8789 5.00564 14.9297 4.88379C14.9805 4.76193 15.0066 4.63122 15.0066 4.49921C15.0066 4.3672 14.9805 4.23649 14.9297 4.11463C14.8789 3.99277 14.8045 3.88217 14.7108 3.78921L11.7108 0.789209C11.5225 0.600905 11.2671 0.495117 11.0008 0.495117C10.7345 0.495117 10.4791 0.600905 10.2908 0.789209C10.1025 0.977512 9.9967 1.23291 9.9967 1.49921C9.9967 1.76551 10.1025 2.02091 10.2908 2.20921ZM5.71079 6.78921L3.41079 4.49921L5.71079 2.20921C5.80403 2.11597 5.87799 2.00528 5.92845 1.88346C5.97891 1.76164 6.00488 1.63107 6.00488 1.49921C6.00488 1.36735 5.97891 1.23678 5.92845 1.11496C5.87799 0.993137 5.80403 0.882447 5.71079 0.789208C5.61755 0.69597 5.50687 0.622009 5.38504 0.571549C5.26322 0.521088 5.13265 0.495117 5.00079 0.495117C4.86893 0.495117 4.73837 0.521088 4.61654 0.571548C4.49472 0.622009 4.38403 0.69597 4.29079 0.789208L1.29079 3.78921C1.19707 3.88217 1.12267 3.99277 1.0719 4.11463C1.02113 4.23649 0.994995 4.3672 0.994995 4.49921C0.994995 4.63122 1.02113 4.76193 1.0719 4.88379C1.12267 5.00564 1.19707 5.11625 1.29079 5.20921L4.29079 8.20921C4.4791 8.39751 4.73449 8.5033 5.00079 8.5033C5.26709 8.5033 5.52249 8.39751 5.71079 8.20921C5.8991 8.0209 6.00488 7.76551 6.00488 7.49921C6.00488 7.23291 5.8991 6.97751 5.71079 6.78921V6.78921Z" fill="black"/>
</svg>
